HIERARCHY
ROOT Hips
{
 OFFSET 0.000000 0.000000 0.000000
 CHANNELS 6 Xposition Yposition Zposition Yrotation Xrotation Zrotation
 JOINT Chest
 {
  OFFSET 0.000000 9.585900 0.002600
  CHANNELS 3 Yrotation Xrotation Zrotation
  JOINT Chest2
  {
   OFFSET 0.000000 9.601200 -0.005300
   CHANNELS 3 Yrotation Xrotation Zrotation
   JOINT Chest3
   {
    OFFSET 0.000000 9.561800 0.000000
    CHANNELS 3 Yrotation Xrotation Zrotation
    JOINT Chest4
    {
     OFFSET 0.000000 9.552100 0.000000
     CHANNELS 3 Yrotation Xrotation Zrotation
     JOINT Neck
     {
      OFFSET 0.000000 14.453000 0.000000
      CHANNELS 3 Yrotation Xrotation Zrotation
      JOINT Head
      {
       OFFSET 0.000000 8.936500 -0.011300
       CHANNELS 3 Yrotation Xrotation Zrotation
       End Site
       {
        OFFSET 0.000000 17.073600 -0.006000
       }
      }
     }
     JOINT RightCollar
     {
      OFFSET -2.921100 9.558500 0.000000
      CHANNELS 3 Yrotation Xrotation Zrotation
      JOINT RightShoulder
      {
       OFFSET -13.519700 0.000000 0.000000
       CHANNELS 3 Yrotation Xrotation Zrotation
       JOINT RightElbow
       {
        OFFSET 0.000000 -29.696600 0.000000
        CHANNELS 3 Yrotation Xrotation Zrotation
        JOINT RightWrist
        {
         OFFSET 0.000000 -24.004700 0.000000
         CHANNELS 3 Yrotation Xrotation Zrotation
         End Site
         {
          OFFSET 0.000000 -17.728500 0.000000
         }
        }
       }
      }
     }
     JOINT LeftCollar
     {
      OFFSET 2.921100 9.558500 0.000000
      CHANNELS 3 Yrotation Xrotation Zrotation
      JOINT LeftShoulder
      {
       OFFSET 13.519700 0.000000 0.000000
       CHANNELS 3 Yrotation Xrotation Zrotation
       JOINT LeftElbow
       {
        OFFSET 0.000000 -29.696600 0.000000
        CHANNELS 3 Yrotation Xrotation Zrotation
        JOINT LeftWrist
        {
         OFFSET 0.000000 -24.004700 0.000000
         CHANNELS 3 Yrotation Xrotation Zrotation
         End Site
         {
          OFFSET 0.000000 -17.728500 0.000000
         }
        }
       }
      }
     }
    }
   }
  }
 }
 JOINT RightHip
 {
  OFFSET -7.771700 -0.012900 -0.001300
  CHANNELS 3 Yrotation Xrotation Zrotation
  JOINT RightKnee
  {
   OFFSET 0.000000 -40.869800 0.001200
   CHANNELS 3 Yrotation Xrotation Zrotation
   JOINT RightAnkle
   {
    OFFSET 0.000000 -39.717900 0.002100
    CHANNELS 3 Yrotation Xrotation Zrotation
    JOINT RightToe
    {
     OFFSET 0.000000 -4.965400 11.033500
     CHANNELS 3 Yrotation Xrotation Zrotation
     End Site
     {
      OFFSET 0.000000 -1.423100 5.872300
     }
    }
   }
  }
 }
 JOINT LeftHip
 {
  OFFSET 7.771700 -0.012900 -0.001300
  CHANNELS 3 Yrotation Xrotation Zrotation
  JOINT LeftKnee
  {
   OFFSET 0.000000 -40.869800 0.001200
   CHANNELS 3 Yrotation Xrotation Zrotation
   JOINT LeftAnkle
   {
    OFFSET 0.000000 -39.717900 0.002100
    CHANNELS 3 Yrotation Xrotation Zrotation
    JOINT LeftToe
    {
     OFFSET 0.000000 -4.965400 11.033500
     CHANNELS 3 Yrotation Xrotation Zrotation
     End Site
     {
      OFFSET 0.000000 -1.423100 5.872300
     }
    }
   }
  }
 }
}
MOTION
Frames: 12
Frame Time: 0.008333
0.000000 85.388000 0.000000 0.000000 -5.767877 0.000000 0.000000 11.653817 0.000000 0.000000 -5.885947 0.000000 0.000000 -0.000000 0.000000 0.000000 -0.000000 0.000000 0.000000 12.528835 0.000000 0.000000 0.711642 0.000000 0.000000 -0.000000 0.000000 0.000000 0.000000 -90.000000 0.000000 -2.309062 0.000000 0.000000 2.309062 0.000000 0.000000 -0.000000 0.000000 0.000000 -0.000000 90.000000 0.000000 -2.309062 0.000000 0.000000 2.309062 0.000000 0.000000 8.520406 0.000000 0.000000 1.905762 0.000000 -0.000000 -4.658285 0.000000 0.000000 -0.000000 0.000000 0.000000 8.520406 0.000000 0.000000 1.905762 0.000000 -0.000000 -4.658285 0.000000 0.000000 -0.000000 0.000000
-29.631765 55.549354 36.513371 -168.932095 -28.725579 -9.667118 -3.989157 14.780193 4.320758 -2.065980 8.655391 1.551063 -2.567115 10.829705 1.891441 -2.077512 8.657163 1.548784 1.657670 18.515791 -1.656699 2.133182 -6.172082 -2.132385 5.477045 -5.420333 -5.300067 -3.343115 -17.275539 3.968648 53.192342 -41.265539 -36.967467 8.243815 0.545420 -20.626044 -10.905981 -2.428615 -3.728648 -4.936353 -16.621151 2.379791 -54.402203 -42.179387 55.594349 0.282407 -13.937564 -3.058210 -24.935018 -29.635010 3.744805 130.942395 87.976019 128.765864 1.194966 -28.231338 -3.559829 -0.048256 0.741351 -0.038167 -14.908970 -46.946100 4.028327 174.778577 72.764450 173.108249 0.152597 -24.608210 0.204906 -0.509485 -2.498302 -0.221523
-29.631121 55.554305 36.513430 -168.932600 -28.720891 -9.673171 -3.991543 14.776848 4.325916 -2.115261 8.656763 1.544340 -2.591880 10.826158 1.887196 -2.049268 8.655270 1.539307 1.672553 18.515836 -1.657919 2.141293 -6.174255 -2.125392 5.510278 -5.412249 -5.315040 -3.333079 -17.277545 3.982714 53.194058 -41.250068 -36.959644 8.253002 0.547077 -20.635649 -10.884809 -2.449144 -3.723174 -4.911683 -16.592920 2.372587 -54.387862 -42.195605 55.561772 0.276352 -13.933203 -3.062948 -24.942173 -29.635459 3.756619 131.014505 87.982077 128.834230 1.196536 -28.231643 -3.554945 -0.049274 0.743366 -0.037300 -14.929473 -46.951942 4.040029 174.761345 72.759758 173.088904 0.161761 -24.602653 0.195402 -0.518256 -2.505670 -0.223427
-29.630362 55.559530 36.513879 -168.935346 -28.712711 -9.678178 -4.007345 14.772795 4.326605 -2.117050 8.655642 1.545099 -2.600663 10.825787 1.886206 -2.113012 8.653157 1.546307 1.725405 18.518068 -1.674299 2.167354 -6.171823 -2.142408 5.583787 -5.409526 -5.349322 -3.317581 -17.276298 3.999634 53.195194 -41.235876 -36.955999 8.255805 0.545380 -20.641152 -10.807637 -2.459802 -3.742088 -4.913935 -16.569474 2.397512 -54.360940 -42.217904 55.533792 0.272326 -13.940050 -3.056114 -24.946427 -29.640105 3.767952 131.099997 87.987468 128.919541 1.201335 -28.232486 -3.553298 -0.050560 0.745615 -0.035497 -14.941772 -46.960573 4.050570 174.742658 72.757003 173.074567 0.157343 -24.601324 0.188267 -0.514186 -2.507227 -0.222488
-29.630463 55.565161 36.513746 -168.938834 -28.708329 -9.677828 -4.022219 14.771481 4.324000 -2.106412 8.653945 1.544888 -2.603449 10.825678 1.885975 -2.124084 8.652182 1.547528 1.717333 18.516911 -1.667201 2.181140 -6.172443 -2.147682 5.594627 -5.406107 -5.362369 -3.310189 -17.280058 4.023473 53.200915 -41.215675 -36.963727 8.255553 0.545762 -20.643178 -10.801582 -2.467921 -3.738494 -4.899519 -16.560535 2.391326 -54.372911 -42.213142 55.519087 0.274570 -13.935863 -3.040606 -24.945722 -29.644695 3.768807 131.129078 87.988018 128.950621 1.205915 -28.233044 -3.554237 -0.052403 0.745845 -0.034494 -14.946362 -46.965976 4.052498 174.731318 72.755582 173.065058 0.157006 -24.599962 0.184114 -0.512865 -2.510291 -0.223955
-29.630424 55.571131 36.512859 -168.945025 -28.708672 -9.677140 -4.034486 14.773603 4.322019 -2.112556 8.652914 1.543452 -2.611185 10.824284 1.884235 -2.112404 8.652924 1.543540 1.681059 18.503716 -1.654680 2.194011 -6.182323 -2.156051 5.588650 -5.403141 -5.377025 -3.303216 -17.288366 4.063272 53.218739 -41.187658 -36.971213 8.266260 0.549085 -20.638961 -10.795417 -2.471770 -3.734124 -4.898388 -16.545365 2.396383 -54.385818 -42.202849 55.517796 0.299622 -13.935782 -3.022358 -24.945813 -29.644622 3.769425 131.110523 87.982800 128.932022 1.209402 -28.233093 -3.557632 -0.051727 0.745578 -0.033079 -14.959766 -46.963825 4.059358 174.736206 72.755326 173.066497 0.161703 -24.605425 0.175736 -0.509781 -2.507953 -0.224653
-29.629664 55.576949 36.511888 -168.945789 -28.707781 -9.682655 -4.059387 14.779019 4.323876 -2.131516 8.654517 1.542387 -2.622550 10.822867 1.880459 -2.134937 8.655795 1.544317 1.714270 18.490691 -1.673063 2.213002 -6.182543 -2.168784 5.661137 -5.403639 -5.405258 -3.305816 -17.290693 4.075150 53.224946 -41.177492 -36.972861 8.287599 0.565034 -20.648741 -10.731425 -2.480713 -3.750148 -4.906329 -16.526106 2.410606 -54.383700 -42.214761 55.524010 0.308260 -13.938835 -3.027613 -24.951092 -29.642213 3.773529 131.090521 87.983815 128.913446 1.214076 -28.234291 -3.561343 -0.051460 0.746300 -0.031833 -15.003823 -46.964790 4.082065 174.741768 72.750179 173.058576 0.174597 -24.600466 0.159382 -0.511364 -2.515244 -0.225251
-29.629115 55.582336 36.511104 -168.946366 -28.705724 -9.686087 -4.075268 14.785380 4.325983 -2.135860 8.654524 1.542176 -2.632716 10.824124 1.880715 -2.143047 8.656767 1.544746 1.719950 18.475142 -1.683687 2.196447 -6.214557 -2.168743 5.684304 -5.404330 -5.423271 -3.293629 -17.298595 4.084119 53.225252 -41.169627 -36.973328 8.292684 0.570006 -20.654132 -10.703251 -2.487405 -3.755906 -4.898058 -16.528307 2.404885 -54.388871 -42.212684 55.525037 0.309102 -13.940860 -3.038787 -24.953282 -29.642455 3.778903 131.195992 87.984057 129.019018 1.214244 -28.235601 -3.556751 -0.051149 0.746453 -0.032487 -15.022518 -46.969200 4.092443 174.739382 72.745137 173.051923 0.180778 -24.594319 0.153406 -0.515877 -2.523449 -0.227336
-29.629592 55.587144 36.510724 -168.945904 -28.702025 -9.682966 -4.083101 14.785384 4.321938 -2.148351 8.656634 1.544241 -2.649410 10.826345 1.883002 -2.143060 8.654381 1.543232 1.737172 18.468972 -1.699579 2.156440 -6.256811 -2.160366 5.697667 -5.384867 -5.423768 -3.271617 -17.323280 4.071814 53.227942 -41.168828 -36.979740 8.293824 0.578496 -20.656980 -10.677647 -2.486004 -3.764387 -4.903116 -16.529971 2.411259 -54.385142 -42.220998 55.524475 0.308328 -13.940457 -3.037945 -24.955560 -29.647556 3.777665 131.286288 87.983147 129.107325 1.212980 -28.240493 -3.551724 -0.050357 0.748877 -0.033558 -15.031091 -46.971903 4.090688 174.757011 72.747100 173.067871 0.185348 -24.603254 0.146387 -0.513411 -2.515467 -0.225780
-29.628074 55.591905 36.510405 -168.947075 -28.697660 -9.690646 -4.086197 14.785364 4.329703 -2.160338 8.652895 1.546914 -2.657203 10.823946 1.884227 -2.149259 8.652485 1.544325 1.726595 18.459754 -1.707764 2.143513 -6.272935 -2.170563 5.721561 -5.371676 -5.433946 -3.274277 -17.335838 4.078769 53.258211 -41.173390 -37.018828 8.293274 0.599546 -20.636051 -10.653688 -2.475063 -3.777617 -4.907198 -16.530105 2.420751 -54.392366 -42.227885 55.530467 0.306420 -13.940314 -3.040320 -24.964107 -29.647418 3.790842 131.329428 87.985707 129.148530 1.214733 -28.242162 -3.552188 -0.051328 0.750020 -0.030699 -15.046375 -46.978276 4.105747 174.745695 72.740854 173.057039 0.185641 -24.599636 0.143781 -0.517325 -2.521298 -0.228393
-29.627188 55.596429 36.510233 -168.948765 -28.694395 -9.694274 -4.108797 14.779975 4.331683 -2.154606 8.649240 1.545681 -2.664005 10.819961 1.885878 -2.154647 8.649277 1.545699 1.711817 18.456582 -1.719314 2.125058 -6.272581 -2.176724 5.741738 -5.349542 -5.441550 -3.276441 -17.342122 4.083624 53.281406 -41.179144 -37.045680 8.297893 0.612511 -20.621956 -10.629569 -2.459436 -3.796139 -4.919898 -16.522239 2.434107 -54.390804 -42.241297 55.540770 0.300669 -13.938711 -3.053586 -24.968180 -29.648626 3.795941 131.338179 87.983686 129.159204 1.217766 -28.244311 -3.556854 -0.050410 0.751187 -0.028567 -15.053122 -46.983262 4.113317 174.731540 72.736468 173.044713 0.181336 -24.598932 0.144431 -0.518892 -2.523842 -0.230919
-29.626155 55.600822 36.510134 -168.954208 -28.692996 -9.697245 -4.111392 14.772420 4.335721 -2.158436 8.646546 1.547155 -2.672288 10.811104 1.888494 -2.159127 8.645358 1.547473 1.688252 18.460714 -1.729031 2.135769 -6.259444 -2.189126 5.741712 -5.304789 -5.414173 -3.262166 -17.369262 4.057223 53.305138 -41.187956 -37.069057 8.307745 0.626408 -20.606131 -10.617596 -2.429344 -3.814062 -4.920753 -16.525557 2.444643 -54.381367 -42.257123 55.543481 0.314709 -13.944949 -3.067750 -24.967006 -29.648694 3.805210 131.414970 87.985840 129.235253 1.219472 -28.245923 -3.557099 -0.050365 0.752239 -0.026573 -15.055477 -46.985551 4.122575 174.730100 72.733478 173.044322 0.178979 -24.600981 0.147092 -0.518837 -2.523888 -0.233261
